# xmcd
#
# Track frame offsets:
#	150
#	15141
#	28961
#	42104
#	58000
#	71679
#	89302
#	102288
#	117857
#	134688
#
# Disc length: 1984 seconds
# Revision: 1
# Processed by: cddbd v1.5.2PL0 Copyright (c) Steve Scherf et al.
# Submitted via: dBpowerAMP V12.0
#
DISCID=8207be0a
DTITLE=McAlister Kemp - Harder To Tame
DYEAR=2014
DGENRE=Country
TTITLE0=Harder To Tame
TTITLE1=Night On Fire
TTITLE2=What A Woman Can Do
TTITLE3=The Only Way I Know How
TTITLE4=There's Always A Girl
TTITLE5=Stand A Little Taller
TTITLE6=Tats
TTITLE7=Fight Me
TTITLE8=To Say I Love You
TTITLE9=Close If It Ain't It
EXTD=
EXTT0=
EXTT1=
EXTT2=
EXTT3=
EXTT4=
EXTT5=
EXTT6=
EXTT7=
EXTT8=
EXTT9=
PLAYORDER=
